<svg width="1080" height="1082" viewBox="0 0 1080 1082" fill="none" xmlns="http://www.w3.org/2000/svg">
<g clip-path="url(#clip0_2335_213)">
<circle cx="-225.5" cy="-204.5" r="1783" stroke="#F07448" stroke-width="3"/>
<circle cx="-257.5" cy="-236.5" r="1783" stroke="#F07448" stroke-width="3"/>
<circle cx="-289.5" cy="-268.5" r="1783" stroke="#F07448" stroke-width="3"/>
<circle cx="-321.5" cy="-300.5" r="1783" stroke="#F07448" stroke-width="3"/>
<circle cx="-353.5" cy="-332.5" r="1783" stroke="#F07448" stroke-width="3"/>
<circle cx="-385.5" cy="-364.5" r="1783" stroke="#F07448" stroke-width="3"/>
<circle cx="-417.5" cy="-396.5" r="1783" stroke="#F07448" stroke-width="3"/>
<circle cx="-449.5" cy="-428.5" r="1783" stroke="#F07448" stroke-width="3"/>
<circle cx="-481.5" cy="-460.5" r="1783" stroke="#F07448" stroke-width="3"/>
<circle cx="-513.5" cy="-492.5" r="1783" stroke="#F07448" stroke-width="3"/>
<circle cx="-545.5" cy="-524.5" r="1783" stroke="#F07448" stroke-width="3"/>
<circle cx="-577.5" cy="-556.5" r="1783" stroke="#F07448" stroke-width="3"/>
<circle cx="-609.5" cy="-588.5" r="1783" stroke="#F07448" stroke-width="3"/>
<circle cx="2226.5" cy="-917.5" r="1783" stroke="#F07448" stroke-width="3"/>
<circle cx="2185.5" cy="-878.5" r="1783" stroke="#F07448" stroke-width="3"/>
<circle cx="2144.5" cy="-839.5" r="1783" stroke="#F07448" stroke-width="3"/>
<circle cx="2103.5" cy="-800.5" r="1783" stroke="#F07448" stroke-width="3"/>
<circle cx="2062.5" cy="-761.5" r="1783" stroke="#F07448" stroke-width="3"/>
<circle cx="2021.5" cy="-722.5" r="1783" stroke="#F07448" stroke-width="3"/>
</g>
<defs>
<clipPath id="clip0_2335_213">
<rect width="1080" height="1082" fill="white"/>
</clipPath>
</defs>
</svg>
