<svg width="2008" height="508" viewBox="0 0 2008 508" fill="none" xmlns="http://www.w3.org/2000/svg">
<g clip-path="url(#clip0_171_102)" filter="url(#filter0_d_171_102)">
<rect width="2000" height="500" transform="translate(4)" fill="white"/>
<path d="M262.992 168.5C276.592 65.7 205.159 -36.5 245.492 -44H400.992L2109.49 -69L2053.49 179.5C1961.99 332 1774.75 376.448 1683.99 377.5C1511.5 379.5 1352 271.547 1334 260C1319.32 250.582 1112.49 101 996.492 88.5C880.492 76 823.5 136 790.5 181.5C759.454 224.306 679.992 431 563.992 434.5C447.992 438 245.992 297 262.992 168.5Z" fill="url(#paint0_linear_171_102)"/>
<path d="M266 141.498C425.2 151.498 548.333 269.998 590 327.998L614.5 618.5L-28.5 689L-95 327.998C-41 261.665 106.8 131.498 266 141.498Z" fill="url(#paint1_radial_171_102)"/>
<path d="M567.5 157.002C929.1 -73.7977 1291.17 127.169 1427 256.502L1526.5 698.5L56 768C75.8333 660.501 205.9 387.802 567.5 157.002Z" fill="url(#paint2_radial_171_102)"/>
<path d="M1249.5 467C1297.5 224.2 1428.43 203.257 1534 170C1670.5 127 1681 112.5 1762 43.5C1851.13 -32.4263 2032.5 -82.6667 2125.5 -86L2210 302.5V581.5C1869.83 644.5 1201.5 709.8 1249.5 467Z" fill="url(#paint3_radial_171_102)"/>
<path d="M262.992 168.5C276.592 65.7 205.159 -36.5 245.492 -44H400.992L2109.49 -69L2053.49 179.5C1961.99 332 1774.75 376.448 1683.99 377.5C1511.5 379.5 1352 271.547 1334 260C1319.32 250.582 1112.49 101 996.492 88.5C880.492 76 823.5 136 790.5 181.5C759.454 224.306 679.992 431 563.992 434.5C447.992 438 245.992 297 262.992 168.5Z" fill="url(#paint4_radial_171_102)"/>
<path d="M279.5 209C337.1 141.8 316.833 42 299.5 0.5H-42C-40 175.5 -27.1 523.6 8.5 516C53 506.5 159.5 412.5 171.5 354C183.5 295.5 207.5 293 279.5 209Z" fill="url(#paint5_linear_171_102)"/>
<path d="M630 -0.5H-3V496C269.833 568.667 823.1 670.4 853.5 496C883.9 321.6 717.167 92.3333 630 -0.5Z" fill="url(#paint6_linear_171_102)"/>
<circle cx="750.5" cy="159.5" r="136.5" fill="url(#paint7_radial_171_102)" fill-opacity="0.8"/>
</g>
<defs>
<filter id="filter0_d_171_102" x="0" y="0" width="2008" height="508" filterUnits="userSpaceOnUse" color-interpolation-filters="sRGB">
<feFlood flood-opacity="0" result="BackgroundImageFix"/>
<feColorMatrix in="SourceAlpha" type="matrix" values="0 0 0 0 0 0 0 0 0 0 0 0 0 0 0 0 0 0 127 0" result="hardAlpha"/>
<feOffset dy="4"/>
<feGaussianBlur stdDeviation="2"/>
<feComposite in2="hardAlpha" operator="out"/>
<feColorMatrix type="matrix" values="0 0 0 0 0 0 0 0 0 0 0 0 0 0 0 0 0 0 0.25 0"/>
<feBlend mode="normal" in2="BackgroundImageFix" result="effect1_dropShadow_171_102"/>
<feBlend mode="normal" in="SourceGraphic" in2="effect1_dropShadow_171_102" result="shape"/>
</filter>
<linearGradient id="paint0_linear_171_102" x1="996.992" y1="389" x2="988.492" y2="-69.5" gradientUnits="userSpaceOnUse">
<stop stop-color="#E3553E"/>
<stop offset="1" stop-color="#BB5243"/>
</linearGradient>
<radialGradient id="paint1_radial_171_102" cx="0" cy="0" r="1" gradientUnits="userSpaceOnUse" gradientTransform="translate(260 228.5) rotate(90.0311) scale(460.5 596.162)">
<stop stop-color="#921B1D"/>
<stop offset="1" stop-color="#2C0809"/>
</radialGradient>
<radialGradient id="paint2_radial_171_102" cx="0" cy="0" r="1" gradientUnits="userSpaceOnUse" gradientTransform="translate(965 77.5) rotate(101.536) scale(372.526 777.088)">
<stop stop-color="#FEAC96"/>
<stop offset="1" stop-color="#F44848"/>
</radialGradient>
<radialGradient id="paint3_radial_171_102" cx="0" cy="0" r="1" gradientUnits="userSpaceOnUse" gradientTransform="translate(1384 277) rotate(19.0735) scale(780.34 877.156)">
<stop stop-color="#FF4A56"/>
<stop offset="1" stop-color="#FE999B"/>
</radialGradient>
<radialGradient id="paint4_radial_171_102" cx="0" cy="0" r="1" gradientUnits="userSpaceOnUse" gradientTransform="translate(959 -20.5) rotate(94.6439) scale(457 3415.42)">
<stop stop-color="white" stop-opacity="0.4"/>
<stop offset="0.647913" stop-color="#999999" stop-opacity="0.1"/>
<stop offset="0.969" stop-color="#999999" stop-opacity="0"/>
</radialGradient>
<linearGradient id="paint5_linear_171_102" x1="137.8" y1="0.5" x2="137.8" y2="516.122" gradientUnits="userSpaceOnUse">
<stop stop-color="#D76854"/>
<stop offset="1" stop-color="#89131B"/>
</linearGradient>
<linearGradient id="paint6_linear_171_102" x1="-3.00001" y1="-0.999975" x2="804.5" y2="447" gradientUnits="userSpaceOnUse">
<stop stop-opacity="0.4"/>
<stop offset="1" stop-color="#666666" stop-opacity="0"/>
</linearGradient>
<radialGradient id="paint7_radial_171_102" cx="0" cy="0" r="1" gradientUnits="userSpaceOnUse" gradientTransform="translate(750.5 159.5) rotate(90) scale(136.5)">
<stop stop-color="#FE5D46"/>
<stop offset="0.624" stop-color="#FE5D46" stop-opacity="0.3"/>
<stop offset="1" stop-color="#FE5D46" stop-opacity="0"/>
</radialGradient>
<clipPath id="clip0_171_102">
<rect width="2000" height="500" fill="white" transform="translate(4)"/>
</clipPath>
</defs>
</svg>
